<?xml version="1.0" encoding="UTF-8" standalone="no"?>
<svg
   xmlns:dc="http://purl.org/dc/elements/1.1/"
   xmlns:cc="http://creativecommons.org/ns#"
   xmlns:rdf="http://www.w3.org/1999/02/22-rdf-syntax-ns#"
   xmlns:svg="http://www.w3.org/2000/svg"
   xmlns="http://www.w3.org/2000/svg"
   xmlns:sodipodi="http://sodipodi.sourceforge.net/DTD/sodipodi-0.dtd"
   xmlns:inkscape="http://www.inkscape.org/namespaces/inkscape"
   inkscape:version="1.0 (4035a4fb49, 2020-05-01)"
   sodipodi:docname="abarth-seeklogo.com.svg"
   viewBox="0 0 462.20765 500"
   height="500"
   width="462.20764"
   xml:space="preserve"
   id="svg2"
   version="1.1"><metadata
     id="metadata8"><rdf:RDF><cc:Work
         rdf:about=""><dc:format>image/svg+xml</dc:format><dc:type
           rdf:resource="http://purl.org/dc/dcmitype/StillImage" /><dc:title></dc:title></cc:Work></rdf:RDF></metadata><defs
     id="defs6" /><sodipodi:namedview
     inkscape:current-layer="g10"
     inkscape:window-maximized="1"
     inkscape:window-y="-11"
     inkscape:window-x="-11"
     inkscape:cy="251.28158"
     inkscape:cx="223.42273"
     inkscape:zoom="0.98919165"
     fit-margin-bottom="0"
     fit-margin-right="0"
     fit-margin-left="0"
     fit-margin-top="0"
     showgrid="false"
     inkscape:document-rotation="0"
     id="namedview4"
     inkscape:window-height="986"
     inkscape:window-width="1920"
     inkscape:pageshadow="2"
     inkscape:pageopacity="0"
     guidetolerance="10"
     gridtolerance="10"
     objecttolerance="10"
     borderopacity="1"
     bordercolor="#666666"
     pagecolor="#ffffff" /><g
     transform="matrix(1.3333333,0,0,-1.3333333,0,396.69183)"
     inkscape:label="ink_ext_XXXXXX"
     inkscape:groupmode="layer"
     id="g10"><path
       d="m 172.8987,297.50769 c 0,0 -27.89193,0.27729 -52.83787,-4.16822 -24.946066,-4.44678 -40.019982,-0.86718 -48.046742,3.5796 -20.499666,-8.02638 -43.600344,-17.78711 -43.600344,-17.78711 0,0 0.112682,-13.34159 -10.627015,-26.68066 C 7.0470573,239.11097 0,229.34898 0,229.34898 c 0,0 24.946569,-21.36671 22.233632,-31.12744 C 19.520317,188.46208 -10.739205,92.364815 15.073918,39.870791 40.887533,-12.624872 80.58094,-42.665823 130.68835,-52.645863 c 26.68066,-5.313948 42.73216,-24.83527 42.73216,-24.83527 0,0 15.86622,19.671437 42.54688,24.985386 50.10691,9.980039 89.80145,40.022504 115.61369,92.517662 25.81348,52.494151 -4.44678,148.590155 -7.15922,158.350885 -2.71243,9.76072 22.23389,31.12744 22.23389,31.12744 0,0 -7.04703,9.76072 -17.78711,23.10105 -10.74007,13.34033 -10.62664,26.68066 -10.62664,26.68066 0,0 -23.10105,9.76073 -43.60059,17.78837 -8.02638,-4.44804 -23.10106,-8.02764 -48.04737,-3.58086 -24.94632,4.44677 -53.69534,4.01823 -53.69534,4.01823"
       style="fill:#cccbcc;fill-opacity:1;fill-rule:evenodd;stroke:none;stroke-width:0.126042"
       id="path14" /><path
       d="m 15.237395,233.86383 c 9.241935,11.62111 18.344088,22.00826 20.960856,37.71693 7.125935,2.97965 21.561195,8.96918 35.460272,14.4621 10.463538,-4.52617 26.607304,-6.83401 49.865537,-2.68974 24.21628,4.31696 51.3948,4.04093 51.3948,4.04093 29.4662,0.44744 76.9489,-12.07109 102.07799,-1.20119 13.89995,-5.49167 28.33434,-11.48247 35.46077,-14.46211 2.62799,-15.77547 11.79631,-26.18531 21.0806,-37.86692 H 15.237395"
       style="fill:#231f20;fill-opacity:1;fill-rule:nonzero;stroke:none;stroke-width:0.126042"
       id="path16" /><path
       d="m 54.812196,252.58491 13.295459,0.60626 -6.363629,10.05315 z m 41.871171,1.47343 c 0,0 14.504323,0.63525 19.268223,0.74114 4.76403,0.10587 3.3884,-5.50554 0.42351,-5.50554 H 96.470733 Z m 0.423502,12.06983 c 0,0 15.456951,0.95288 19.162351,0.95288 3.70641,0 2.43565,-5.08078 0,-5.18791 -2.43514,-0.10461 -19.162351,-0.31763 -19.162351,-0.31763 z m -24.724484,-19.6891 h -21.56712 l -2.927462,-4.50223 H 36.048134 l 18.989552,26.6857 14.058143,1.78729 17.509057,-26.54202 v 29.04396 c 0,0 26.765874,2.17675 34.374164,2.17675 7.60943,0 8.42493,-3.98294 8.42493,-9.26412 0,-5.27991 -4.20352,-6.61723 -4.6821,-6.61723 -0.47896,0 -0.37409,-0.75877 0.0361,-0.75877 0.41104,0 5.4061,0.13739 5.4061,-3.76237 v -6.22649 l 15.67085,28.66835 14.22641,0.0983 16.72835,-32.90086 v 32.33871 c 0,0 28.06965,-0.69575 34.5999,-1.39024 6.53152,-0.69576 7.50457,-4.72534 7.50457,-4.72534 l -0.13864,4.02958 c 0,0 12.78448,-0.27729 29.59854,-1.66628 16.8128,-1.39025 26.47142,-2.7326 26.47142,-2.7326 v -11.25811 l 23.15905,-2.31414 v 9.35739 l 10.3985,-1.66881 0.007,-22.21245 h -10.42119 l -0.007,7.76043 c 0,0 -3.33507,0.55585 -10.69973,0.97305 -7.36466,0.41594 -12.56643,0.63399 -12.56643,0.63399 l 0.007,-9.29689 h -10.64554 l -0.006,21.30243 c 0,0 -3.09812,0.51804 -9.92961,0.93272 -6.83276,0.41468 -10.21449,0.40334 -10.21449,0.40334 l 0.006,-22.57042 H 233.2133 l -0.007,23.81067 h -13.9718 v -2.3822 c 0,-9.27672 -5.21438,-9.75694 -5.93408,-9.75694 -0.71844,0 -0.38318,-0.62391 -0.0479,-0.62391 0.33653,0 5.1627,0.32014 5.1627,-3.44474 l 9.3e-4,-7.81337 h -10.67076 l -9.2e-4,4.45938 c 0,0 0.98817,3.23425 -4.23377,3.23425 h -16.5771 l 0.029,-7.62809 -21.48898,-0.0239 -2.80444,5.58746 H 141.1134 l -3.02375,-5.57864 -11.46356,0.0618 c 0,0 -0.14999,0.21679 0.0365,1.95365 -3.13845,-2.52336 -5.75534,-2.04188 -5.75534,-2.04188 l -45.796783,-0.0643 z m 86.369315,8.98809 -6.41935,12.75927 -6.96636,-12.75927 z m 28.87632,12.3509 v -9.08009 c 0,0 11.84672,-0.18655 16.85313,-0.18655 5.00766,0 4.44678,2.0192 4.44678,3.88589 0,1.86795 0.56088,5.00767 -4.81987,5.00767 -5.38074,0 -16.48004,0.37308 -16.48004,0.37308"
       style="fill:#ffffff;fill-opacity:1;fill-rule:evenodd;stroke:none;stroke-width:0.126042"
       id="path18" /><path
       d="m 326.95784,219.96639 c -6.68782,-7.64448 -12.90044,-17.21488 -10.56866,-25.603 2.50824,-9.02338 5.21311,-19.21643 7.72388,-30.07121 L 286.67972,147.2689 c -0.0479,0.0769 -0.10462,0.15377 -0.1689,0.22939 l -50.23546,58.6904 c -0.15252,0.17646 -0.95667,0.50164 -1.18985,0.4777 l -77.83624,-7.53103 c -1.7482,-0.1689 -2.0381,-1.93224 -0.43484,-2.65068 l 48.74943,-21.87718 -24.26569,-10.71739 c -1.57932,-0.69828 -1.34992,-2.39229 0.35669,-2.64689 l 48.03225,-7.13022 c 0.17521,-0.0252 0.97431,0.20419 1.10791,0.31889 l 16.84054,14.39782 8.7297,-18.62403 -57.06571,-14.72553 c -0.65291,-0.16764 -1.14446,-0.94154 -1.01843,-1.60452 0,0 3.02376,-15.93429 4.86776,-22.63848 l -17.38629,19.57187 c -2.45405,2.76285 -10.43883,-9.35109 -12.1152,-11.22408 l -16.73087,-0.56971 c -0.847,-0.029 -1.44571,-0.74113 -1.32849,-1.58183 l 3.4397,-24.564415 -12.52484,17.076225 c -0.42602,0.58106 -1.33227,0.72979 -1.92215,0.31385 l -48.423606,-34.137333 -9.5404,19.082823 21.736896,3.323739 c 0.17382,0.02647 0.86957,0.481482 0.9641,0.631473 l 25.84638,40.855388 c 0.93902,1.48352 -0.27477,2.79436 -1.82634,1.97005 l -23.72712,-12.6055 15.77157,51.94459 c 0.51059,1.68267 -1.01376,2.62295 -2.28755,1.41042 L 67.490804,129.81328 c -0.170913,-0.1626 -0.451484,-0.98313 -0.415561,-1.21757 L 78.652491,53.000505 c 0.01626,-0.105876 0.03983,-0.20545 0.07033,-0.298721 L 28.807122,30.001543 c -2.166921,3.781273 -4.251536,7.704847 -6.251451,11.77211 -20.314977,41.314439 -4.119067,109.878997 7.710771,152.438487 2.347036,8.44484 -3.962522,18.08457 -10.700372,25.75425 h 307.39177"
       style="fill:#fcd205;fill-opacity:1;fill-rule:nonzero;stroke:none;stroke-width:0.126042"
       id="path20" /><path
       d="M 324.74454,161.52556 C 333.7364,121.71379 339.74358,73.738265 324.09919,41.923896 299.35958,-8.3882072 261.746,-36.652213 214.33893,-46.09506 199.00587,-49.148186 184.81601,-56.879628 173.37135,-67.367215 161.85234,-56.970253 147.64358,-49.296916 132.31682,-46.24379 89.563984,-37.730002 54.776274,-13.907983 30.212748,27.588082 L 156.90265,85.200563 144.51647,68.095345 139.5693,68.213826 c -1.73939,0.04286 -2.2486,-1.625948 -0.7802,-2.561183 l 9.9876,-6.362622 c 0.45879,-0.292418 1.36504,-0.185282 1.74443,0.20545 l 15.57758,16.057804 2.90276,-3.854377 -14.67134,-15.927981 c -0.46888,-0.04789 -9.41285,-0.354179 -5.4463,-3.027539 l 9.23513,-6.22637 c 0.4588,-0.308678 1.36757,-0.220575 1.75955,0.169905 l 15.94941,15.949535 2.86747,-3.807741 -14.45581,-15.65321 h -4.79717 c -5.91769,0 7.58649,-11.86034 9.8792,-9.552755 l 16.12965,16.238045 3.16493,-4.203388 -13.28613,-15.547586 -5.72611,-0.05269 c -1.68897,-0.01525 -2.16667,-1.569606 -0.7802,-2.531184 l 9.00573,-6.247923 c 0.46635,-0.32103 1.37512,-0.239229 1.77594,0.160074 l 15.54481,15.545946 c 0.23948,-0.318509 0.5735,-0.845367 0.99195,-1.232317 -0.10713,-0.166376 -0.16889,-0.351532 -0.17519,-0.555847 l -0.83441,-23.346965 c -0.004,-0.118606 0.0605,-0.313594 0.15503,-0.516899 -0.5445,0.07436 -0.99699,-0.0276 -1.30075,-0.379136 L 179.35585,-5.9141206 c -0.15125,-0.1738132 -0.35544,-1.0157762 -0.29998,-1.2402575 l 0.11723,-0.4863977 c -0.29999,0.1875509 -0.64535,0.235321 -1.04995,0.1057494 L 157.37532,-14.21036 c -0.16512,-0.05306 -0.77895,-0.609037 -0.84827,-0.76659 l -0.31259,-0.714408 c -0.0189,0.57614 -0.18654,1.032539 -0.57601,1.281599 L 130.00268,2.0619704 c -0.46636,0.2998544 -1.61839,0.2077179 -2.99225,-0.1373866 l 1.35874,0.5165216 c 0.46258,0.1767113 0.94028,0.9517466 0.8886,1.4445727 l -4.72495,44.7461959 c -0.18995,1.806188 -2.1431,2.010376 -2.70349,0.283595 L 104.59845,-4.1688116 c -0.44707,-1.3761308 0.46232,-2.2421683 1.81539,-1.7276637 l 16.33182,6.20128749 c -2.34514,-1.21366208 -4.00487,-2.76902599 -2.63365,-3.95911819 10.23854,-8.885991 39.16906,-37.723112 36.49319,-28.289088 l -0.16134,0.568703 c 0.72601,-1.076277 1.48099,-1.760687 2.1528,-1.643467 l 31.86101,5.559605 c 1.39151,0.243262 1.74191,1.410162 0.71466,2.381067 l 1.1306,-0.04827 c 0.53442,-0.443669 1.44823,-0.376615 1.91459,0.136379 l 27.23777,30.0216668 c 0.72348,0.7996128 0.65793,1.6475004 0.0315,2.0635668 0.59114,0.1170929 1.14447,0.7399944 1.15833,1.3361757 l 0.8344,35.0181157 c 0.0302,1.258029 -0.82432,1.847781 -1.83392,1.376635 l 1.09027,0.724744 c 1.37765,0.9099 -0.16133,4.228597 -0.28737,4.688652 l 22.07002,0.887339 c 2.87882,0.115959 2.09105,11.181223 2.16289,12.1215 0.12605,1.639812 -1.28437,2.25742 -2.40362,1.051194 l -3.22165,-3.468687 -21.27723,-0.796589 -1.49108,5.471502 23.23593,1.628468 c 2.86746,0.200407 1.68392,11.046358 1.72804,12.153011 0.1815,4.473246 -5.19295,-1.705354 -5.96811,-2.460349 l -22.01079,-0.257126 -1.31715,4.836248 23.65565,1.435623 c 2.87125,0.173938 2.38851,12.074865 2.39229,12.111417 0.45753,4.543829 -5.34798,-1.544019 -6.08281,-2.201961 l -22.94099,-0.428544 -1.29066,4.735413 24.32366,1.325967 c 0.50543,0.02773 1.19236,0.627691 1.28815,1.124299 l 2.27003,11.749676 c 0.33401,1.72804 -1.28564,2.50446 -2.4238,1.16211 l -2.86242,-3.37416 c -11.37029,-0.0819 -18.17658,0.10336 -22.94729,-0.001 l 115.40697,52.48028"
       style="fill:#ed1c24;fill-opacity:1;fill-rule:nonzero;stroke:none;stroke-width:0.126042"
       id="path22" /><path
       d="m 335.48587,228.78306 c -1.90954,-1.84149 -4.19721,-4.08252 -6.52396,-6.59329 H 230.5795 v 9.44941 h 102.71197 c 0.73482,-0.94028 1.46714,-1.8919 2.1944,-2.85612"
       style="fill:#ed1c24;fill-opacity:1;fill-rule:nonzero;stroke:none;stroke-width:0.126042"
       id="path24" /><path
       d="M 116.07625,222.18977 H 17.553929 c -2.278721,2.44901 -4.513454,4.63837 -6.384894,6.44203 0.767082,1.01716 1.538563,2.01795 2.313094,3.00738 H 116.07625 v -9.44941"
       style="fill:#007334;fill-opacity:1;fill-rule:nonzero;stroke:none;stroke-width:0.126042"
       id="path26" /><path
       d="m 230.5795,231.63918 v -9.44941 H 116.07625 v 9.44941 H 230.5795"
       style="fill:#ffffff;fill-opacity:1;fill-rule:nonzero;stroke:none;stroke-width:0.126042"
       id="path28" /><path
       style="fill:#231f20;fill-opacity:1;fill-rule:evenodd;stroke:none;stroke-width:0.126042"
       d="m 197.35597,35.145208 13.06178,0.27868 11.67279,8.059279 -0.8344,-35.0186195 -16.95271,-1.3889876 -7.78186,4.7241961 0.8344,23.345452"
       id="path33" /><path
       style="fill:#231f20;fill-opacity:1;fill-rule:evenodd;stroke:none;stroke-width:0.126042"
       d="m 195.03679,10.042473 7.78816,-5.0037587 17.60057,0.927672 -27.23777,-30.0217943 -10.7489,8.893428 -2.03307,8.3379593 z"
       id="path31" /><path
       style="fill:#231f20;fill-opacity:1;fill-rule:evenodd;stroke:none;stroke-width:0.126042"
       d="m 178.54918,-8.8584721 2.04189,-8.1522979 9.62711,-9.079088 -31.86099,-5.559606 -3.71196,8.893428 3.15485,7.222231 z"
       id="path29" /><path
       style="fill:#231f20;fill-opacity:1;fill-rule:evenodd;stroke:none;stroke-width:0.126042"
       d="m 154.88849,-15.579055 -2.35951,-7.089886 2.7389,-9.653589 -34.24547,29.7170231 8.22906,3.49868539 z"
       id="path27" /><path
       style="fill:#231f20;fill-opacity:1;fill-rule:evenodd;stroke:none;stroke-width:0.126042"
       d="M 123.15139,48.485413 127.87635,3.7394689 105.92,-4.5971033 Z"
       id="path25" /><path
       style="fill:#231f20;fill-opacity:1;fill-rule:evenodd;stroke:none;stroke-width:0.126042"
       d="m 214.21415,75.167586 23.64051,0.277293 4.00942,3.899753 -0.43863,-10.824524 -24.92363,-1.745688 2.22716,-8.170069 22.95485,0.859609 3.61238,3.89093 -0.83314,-10.838389 -23.81446,-0.957922 1.32093,-4.847592 -12.51853,-8.277458 -12.3131,-1.778332 -1.84021,2.44308 -16.67542,-16.677052 -9.00573,6.247041 6.35884,0.05911 14.42304,16.875821 -4.80222,6.3751 -17.26025,-17.376208 -8.89355,7.184418 h 5.4047 l 15.65699,16.951446 -4.52871,6.012223 -17.08,-17.081018 -9.23513,6.226244 5.33537,0.547025 15.81328,17.168239 -4.57659,6.075245 -16.70819,-17.223698 -9.98886,6.362622 5.67821,-0.136126 14.36632,19.839078 45.53913,20.931873 27.81378,0.20166 3.27332,3.86068 -2.26876,-11.749675 -26.04163,-1.419238 2.02802,-7.440284 24.54046,0.460055 4.15562,3.719512 -1.09279,-10.862337 -25.36225,-1.540238 z"
       id="path23" /><path
       style="fill:#231f20;fill-opacity:1;fill-rule:evenodd;stroke:none;stroke-width:0.126042"
       d="M 145.38238,109.12342 159.74617,89.540204 80.025597,53.210995 68.448978,128.8062 124.05285,181.72764 107.30987,126.58281 133.9894,140.75754 108.14339,99.902152 84.52027,96.289776 95.637216,74.054631 Z"
       id="path21" /><path
       style="fill:#231f20;fill-opacity:1;fill-rule:evenodd;stroke:none;stroke-width:0.126042"
       d="m 184.724,129.88639 18.3669,-20.676 -42.25194,-19.26433 -3.87454,27.68018 17.32327,0.58988 z"
       id="path19" /><path
       style="fill:#231f20;fill-opacity:1;fill-rule:evenodd;stroke:none;stroke-width:0.126042"
       d="m 285.45585,146.59457 -81.07175,-36.85481 -0.11092,0.0139 -4.62701,24.38165 58.68787,15.14273 -10.21448,21.794 -18.22825,-15.58388 -48.03225,7.13021 27.12181,11.97908 -51.59799,23.15525 77.83624,7.53104 z"
       id="path30" /></g></svg>
