<?xml version="1.0" encoding="UTF-8" standalone="no"?>
<!-- Created with Inkscape (http://www.inkscape.org/) -->

<svg
   xmlns:dc="http://purl.org/dc/elements/1.1/"
   xmlns:cc="http://creativecommons.org/ns#"
   xmlns:rdf="http://www.w3.org/1999/02/22-rdf-syntax-ns#"
   xmlns:svg="http://www.w3.org/2000/svg"
   xmlns="http://www.w3.org/2000/svg"
   xmlns:sodipodi="http://sodipodi.sourceforge.net/DTD/sodipodi-0.dtd"
   xmlns:inkscape="http://www.inkscape.org/namespaces/inkscape"
   version="1.0"
   width="600"
   height="140"
   id="svg1879"
   inkscape:version="0.48.1 "
   sodipodi:docname="smart logo without.svg">
  <metadata
     id="metadata3007">
    <rdf:RDF>
      <cc:Work
         rdf:about="">
        <dc:format>image/svg+xml</dc:format>
        <dc:type
           rdf:resource="http://purl.org/dc/dcmitype/StillImage" />
      </cc:Work>
    </rdf:RDF>
  </metadata>
  <sodipodi:namedview
     pagecolor="#ffffff"
     bordercolor="#666666"
     borderopacity="1"
     objecttolerance="10"
     gridtolerance="10"
     guidetolerance="10"
     inkscape:pageopacity="0"
     inkscape:pageshadow="2"
     inkscape:window-width="1280"
     inkscape:window-height="657"
     id="namedview3005"
     showgrid="false"
     inkscape:zoom="0.93069973"
     inkscape:cx="538.36121"
     inkscape:cy="128.59252"
     inkscape:window-x="0"
     inkscape:window-y="0"
     inkscape:window-maximized="1"
     inkscape:current-layer="svg1879" />
  <defs
     id="defs1881" />
  <g
     id="g3021"
     transform="matrix(0.78848986,0,0,0.78848986,-64.175085,-49.136009)">
    <path
       d="m 197.33527,99.94465 c 15.91406,10.31244 38.84103,42.48425 44.99894,60.24685 -6.15791,17.81114 -29.08488,49.90252 -44.99894,60.23764 l 0,-120.48449 z"
       style="fill:#fcb814;fill-rule:evenodd"
       id="_91331920"
       inkscape:connector-curvature="0" />
    <path
       d="m 163.27913,122.79119 c 8.31544,0 18.93331,3.30236 27.26185,9.25759 l 0,-36.255468 c -8.29311,-5.161181 -18.40287,-8.19 -30.23291,-8.19 -40.12405,0 -72.565864,32.499568 -72.565864,72.588188 0,40.12405 32.441814,72.49854 72.565864,72.49854 11.83004,0 21.9398,-2.91331 30.23291,-8.1 l 0,-36.35539 c -8.32854,5.95523 -18.94641,9.35752 -27.26185,9.35752 -22.57334,0 -39.16878,-16.49303 -39.16878,-37.40067 0,-21.00721 16.59544,-37.40031 39.16878,-37.40031 z m 539.69527,27.68952 0,74.10933 25.37397,0 0,-72.65586 c 0,-10.18701 8.31543,-18.34512 18.33201,-18.34512 l 11.7209,0 0,-24.21638 -12.99118,-0.0354 c -22.92378,0.23811 -41.50665,18.26433 -42.4357,41.14346 z m 112.32637,49.81252 c -10.06157,0 -18.27425,-8.30587 -18.28701,-18.34512 0,0 0,-45.94074 0,-48.4813 2.44063,0 28.05272,0 28.05272,0 l 0,-24.23232 c 0,0 -25.61209,0 -28.05272,0 0,-2.35701 0,-22.798698 0,-22.798698 l -25.49941,0 0,96.908028 c 0.92906,22.91421 19.67918,40.90535 42.49382,41.17854 l 13.01032,-0.0319 0,-24.19724 -11.71772,0 z M 510.37723,107.07981 c -12.61452,0 -24.59267,5.77523 -32.46448,15.41551 -7.83957,-9.64028 -19.93323,-15.41551 -32.58,-15.41551 -22.13291,0 -40.47449,17.29984 -41.66752,39.41008 l -0.01,78.10015 25.55752,0 0,-74.92606 c 0,-10.47969 7.86189,-18.57012 17.91071,-18.57012 8.29276,0 18.06165,5.61756 18.06165,21.54437 l 0,71.95181 25.44166,0 0,-72.02267 c 0,-14.76886 9.29303,-21.47351 17.94614,-21.47351 10.6983,0 18.01382,7.5887 18.01382,18.57012 l 0,74.92606 25.44484,0 0,-78.03248 c -1.2926,-22.17791 -19.52185,-39.47775 -41.65477,-39.47775 z m 116.43307,0.27354 c -32.94035,0 -58.78417,26.05571 -58.78417,59.48504 0,34.89519 24.92398,60.15685 59.25012,60.15685 13.32886,0 25.27476,-4.9454 32.81846,-13.24807 l 0,10.8333 25.43173,0 0,-57.27614 c 0,-34.802 -24.77586,-59.95098 -58.71614,-59.95098 z m 0.34087,95.19697 c -19.08142,0 -34.51925,-15.96189 -34.51925,-35.34874 0,-19.40918 15.43783,-35.32323 34.51925,-35.32323 18.94606,0 34.37114,15.91405 34.37114,35.32323 0,20.74996 -14.1098,35.34874 -34.37114,35.34874 z M 344.35062,155.65429 c -24.65043,-2.85838 -29.56393,-7.27015 -29.56393,-13.99712 0,-10.63099 16.11,-12.01358 23.22283,-12.01358 12.18083,0 24.22949,4.77531 32.82803,12.14858 l 16.20957,-16.18724 c -6.4761,-5.35394 -22.00748,-18.28701 -52.82858,-18.28701 -30.41291,0 -46.79327,18.44468 -46.79327,35.8696 0,20.61213 15.99449,32.36492 48.96036,35.93729 13.86248,1.52114 24.32267,3.44728 24.32267,13.09074 0,17.76614 -44.55815,15.98457 -62.44972,-3.78779 l -17.65984,17.78527 c 1.66571,1.8939 22.41248,20.99764 53.5298,20.99764 37.13988,0 53.97342,-18.19382 53.97342,-35.19779 0,-21.35126 -13.87204,-32.9113 -43.75134,-36.35859 z M 828.97935,86.979336 c -0.63319,-1.270276 -1.67846,-3.527363 -2.72019,-4.218662 1.24759,-0.331299 2.60787,-1.727008 2.60787,-3.665905 0,-0.475866 -0.27354,-3.832795 -4.19634,-3.832795 l -7.61138,0 0,2.05122 1.92615,0 0,9.666142 -1.92615,0 0,2.073897 6.28335,0 0,-2.073897 -2.09976,0 0,-3.787796 2.01933,0 c 1.75889,0.655867 2.84882,2.765197 4.20909,5.861693 l 3.23504,0 0,-2.073897 -1.72701,0 z m -7.73645,-9.666142 3.33779,0 c 1.79079,0 1.99347,1.215709 1.99347,1.826575 0,1.260354 -1.12217,2.009764 -2.78788,2.009764 l -2.54338,0 0,-3.836339 z m 2.30563,-8.222244 c -7.21595,0 -13.08118,5.85248 -13.08118,13.077992 0,7.21559 5.86523,13.068071 13.08118,13.068071 7.2124,0 13.06807,-5.852481 13.06807,-13.068071 0,-7.225512 -5.85567,-13.077992 -13.06807,-13.077992 z m 0,23.673189 c -5.85567,0 -10.60831,-4.743071 -10.60831,-10.595197 0,-5.865236 4.75264,-10.617874 10.60831,-10.617874 5.86169,0 10.60476,4.752638 10.60476,10.617874 0,5.852126 -4.74307,10.595197 -10.60476,10.595197 z"
       style="fill:#a0a0a0;fill-rule:evenodd"
       id="_93038808"
       inkscape:connector-curvature="0" />
  </g>
</svg>
