<?xml version="1.0" encoding="UTF-8" standalone="no"?>
<svg
   xmlns:dc="http://purl.org/dc/elements/1.1/"
   xmlns:cc="http://creativecommons.org/ns#"
   xmlns:rdf="http://www.w3.org/1999/02/22-rdf-syntax-ns#"
   xmlns:svg="http://www.w3.org/2000/svg"
   xmlns="http://www.w3.org/2000/svg"
   viewBox="0 0 1020.3453 230.66667"
   height="230.66667"
   width="1020.3453"
   xml:space="preserve"
   id="svg2"
   version="1.1"><metadata
     id="metadata8"><rdf:RDF><cc:Work
         rdf:about=""><dc:format>image/svg+xml</dc:format><dc:type
           rdf:resource="http://purl.org/dc/dcmitype/StillImage" /></cc:Work></rdf:RDF></metadata><defs
     id="defs6"><clipPath
       id="clipPath18"
       clipPathUnits="userSpaceOnUse"><path
         id="path16"
         d="M 0,173 H 765.259 V 0 H 0 Z" /></clipPath></defs><g
     transform="matrix(1.3333333,0,0,-1.3333333,0,230.66667)"
     id="g10"><g
       id="g12"><g
         clip-path="url(#clipPath18)"
         id="g14"><g
           transform="translate(150.3906,85.7827)"
           id="g20"><path
             id="path22"
             style="fill:#e6002d;fill-opacity:1;fill-rule:nonzero;stroke:none"
             d="m 0,0 c 0,0 -3.914,3.992 -10.9,9.501 -5.711,4.51 -14.257,10.217 -23.859,16.065 0,0 -8.623,5.52 -8.042,11.068 0.55,5.259 5.629,6.966 13.578,6.319 0,0 18.218,0.043 46.096,-19.087 V 77.61 c 0,0 -38.712,16.062 -76.469,6.273 0,0 -34.127,-6.635 -36.115,-36.291 0,0 -2.288,-12.849 8.432,-26.665 4.554,-5.867 8.292,-9.621 21.153,-17.637 0,0 12.963,-8.35 16.538,-11.96 0,0 16.237,-11.762 17.157,-31.624 0.144,-3.092 0.175,-6.573 -0.542,-10.047 -0.873,-4.214 -2.55,-9.711 -6.008,-14.853 0,0 -4.046,-7.894 -15.005,-14.116 0,0 51.612,-12.553 68.098,23.87 0,0 13.31,27.001 -14.112,55.44" /></g><g
           transform="translate(17.3442,87.038)"
           id="g24"><path
             id="path26"
             style="fill:#9f9e95;fill-opacity:1;fill-rule:nonzero;stroke:none"
             d="m 0,0 c 0,0 3.91,-3.988 10.896,-9.501 5.711,-4.506 14.257,-10.213 23.863,-16.065 0,0 8.619,-5.516 8.038,-11.068 -0.549,-5.259 -5.629,-6.962 -13.578,-6.315 0,0 -18.218,-0.047 -46.095,19.087 v -53.745 c 0,0 38.711,-16.061 76.468,-6.272 0,0 34.127,6.635 36.115,36.287 0,0 2.292,12.849 -8.432,26.665 -4.554,5.871 -8.292,9.625 -21.153,17.641 0,0 -12.963,8.35 -16.534,11.96 0,0 -16.241,11.762 -17.161,31.62 -0.144,3.096 -0.175,6.573 0.542,10.047 0.873,4.218 2.554,9.715 6.008,14.857 0,0 4.05,7.894 15.009,14.112 0,0 -51.616,12.557 -68.102,-23.866 0,0 -13.31,-27.005 14.116,-55.44" /></g><g
           transform="translate(255.803,24.2968)"
           id="g28"><path
             id="path30"
             style="fill:#000000;fill-opacity:1;fill-rule:nonzero;stroke:none"
             d="m 0,0 c 0,12.559 -6.917,18.48 -21.72,24.653 -10.751,4.477 -18.811,7.605 -18.811,15.326 0,2.574 0.672,10.527 15.623,10.527 12.428,0 21.327,-5.263 21.327,-5.263 v 13.404 c 0,0 -10.641,3.831 -22.508,3.831 -31.69,0 -32.361,-19.893 -32.361,-23.505 0,-14.662 11.647,-19.925 25.792,-25.118 3.646,-1.341 15.416,-4.437 15.416,-13.72 0,-3.579 -2.13,-11.636 -19.817,-11.636 -11.202,0 -20.468,4.644 -20.468,4.644 v -13.5 c 0,0 7.698,-3.793 22.346,-3.793 C -7.505,-24.15 0,-9.966 0,0" /></g><g
           transform="translate(304.508,21.5225)"
           id="g32"><path
             id="path34"
             style="fill:#000000;fill-opacity:1;fill-rule:nonzero;stroke:none"
             d="m 0,0 c 0,7.392 -3.672,12.662 -15.564,17.906 -8.621,3.806 -16.662,7.167 -16.662,12.985 0,2.115 1.097,8.121 11.796,8.121 10.196,0 17.236,-4.825 17.236,-4.825 v 12.262 c 0,0 -6.518,3.664 -19.559,3.664 -24.811,0 -25.618,-16.074 -25.618,-19.035 0,-10.598 7.279,-15.526 17.578,-19.996 4.685,-2.039 14.783,-4.703 14.783,-12.366 0,-2.935 -2.574,-8.785 -14.383,-8.785 -8.686,0 -16.784,4.07 -16.784,4.07 v -12.133 c 0,0 5.382,-2.909 18.068,-2.909 C -7.666,-21.041 0,-10.075 0,0" /></g><g
           transform="translate(434.8427,70.2555)"
           id="g36"><path
             id="path38"
             style="fill:#000000;fill-opacity:1;fill-rule:nonzero;stroke:none"
             d="M 0,0 H -13.364 V -48.984 L -41.847,0 h -18.842 v -67.645 h 13.364 v 50.494 l 29.36,-50.494 H 0 Z" /></g><g
           transform="translate(336.9111,56.9981)"
           id="g40"><path
             id="path42"
             style="fill:#000000;fill-opacity:1;fill-rule:nonzero;stroke:none"
             d="M 0,0 11.06,-28.723 H -11.073 Z M 20.953,-54.389 H 35.536 L 29.677,-39.167 25.65,-28.723 9.473,13.255 H -9.486 l -16.177,-41.978 -4.02,-10.444 -5.866,-15.222 h 14.59 l 5.782,15.003 h 30.348 z" /></g><g
           transform="translate(473.9731,40.2259)"
           id="g44"><path
             id="path46"
             style="fill:#000000;fill-opacity:1;fill-rule:nonzero;stroke:none"
             d="m 0,0 v -10.011 h 16.707 v -17.158 c 0,0 -2.653,-1.754 -9.931,-1.754 -24.302,0 -25.973,19.841 -25.973,23.872 0,7.908 2.865,14.604 7.22,19.177 4.679,4.896 11.738,6.786 21.205,6.786 11.879,0 19.532,-4.167 19.532,-4.167 v 11.211 c 0,0 -9.892,3.406 -20.939,3.406 -13.132,0 -24.186,-3.664 -31.71,-10.398 -6.769,-6.057 -10.686,-16.758 -10.686,-25.763 0,-8.308 3.879,-35.025 40.75,-35.025 13.926,0 25.051,5.005 25.051,5.005 L 31.258,0 Z" /></g><g
           transform="translate(694.8594,70.2555)"
           id="g48"><path
             id="path50"
             style="fill:#000000;fill-opacity:1;fill-rule:nonzero;stroke:none"
             d="M 0,0 H -13.351 V -48.984 L -41.847,0 h -18.83 v -67.645 h 13.351 v 50.494 l 29.361,-50.494 H 0 Z" /></g><g
           transform="translate(733.9949,40.2259)"
           id="g52"><path
             id="path54"
             style="fill:#000000;fill-opacity:1;fill-rule:nonzero;stroke:none"
             d="m 0,0 v -10.011 h 16.7 v -17.158 c 0,0 -2.646,-1.754 -9.924,-1.754 -24.296,0 -25.973,19.841 -25.973,23.872 0,7.908 2.858,14.604 7.227,19.177 4.665,4.896 11.725,6.786 21.198,6.786 11.879,0 19.533,-4.167 19.533,-4.167 v 11.211 c 0,0 -9.893,3.406 -20.94,3.406 -13.125,0 -24.179,-3.664 -31.716,-10.398 -6.769,-6.057 -10.686,-16.758 -10.686,-25.763 0,-8.308 3.885,-35.025 40.756,-35.025 13.919,0 25.051,5.005 25.051,5.005 L 31.264,0 Z" /></g><g
           transform="translate(545.9439,32.5513)"
           id="g56"><path
             id="path58"
             style="fill:#000000;fill-opacity:1;fill-rule:nonzero;stroke:none"
             d="M 0,0 28.296,52.551 H 13.132 l -21.03,-39.05 -22.837,39.05 h -15.474 l 30.89,-52.822 -17.384,-32.284 h 15.171 l 10.111,18.777 z" /></g><g
           transform="translate(594.4092,11.2238)"
           id="g60"><path
             id="path62"
             style="fill:#000000;fill-opacity:1;fill-rule:nonzero;stroke:none"
             d="m 0,0 c -0.8,0 -20.727,-1.342 -20.727,24.989 0,25.653 20.301,24.84 20.727,24.84 0.439,0 20.701,0.813 20.701,-24.84 C 20.701,-1.342 0.8,0 0,0 M 21.856,53.751 C 13.932,59.775 4.807,60.582 0,60.582 c -4.788,0 -13.958,-0.807 -21.888,-6.831 -7.202,-5.47 -14.403,-13.952 -14.403,-28.73 0,-13.565 5.266,-21.364 11.919,-27.575 7.866,-7.36 20.778,-8.463 24.372,-8.463 3.601,0 16.487,1.103 24.36,8.463 6.646,6.211 11.912,14.01 11.912,27.575 0,14.778 -7.215,23.26 -14.416,28.73" /></g></g></g></g></svg>